# xmcd CD database file
#
# Track frame offsets:
#	150
#	35553
#	46726
#	55039
#	68072
#	85550
#	100309
#	123690
#	139078
#	154319
#	171225
#	215377
#
# Disc length: 3092 seconds
#
# Revision: 0
# Processed by: cddbd v1.5.2PL0 Copyright (c) Steve Scherf et al.
# Submitted via: CDex 1.70beta2
#
DISCID=a20c120c
DTITLE=Final Straw - Final Straw Done (Demotape)
DYEAR=1900
DGENRE=Jazz
TTITLE0=Stormy Monday
TTITLE1=Since I met you
TTITLE2=You know
TTITLE3=She ain't got the Blues
TTITLE4=I loved another woman
TTITLE5=Fire
TTITLE6=Oh Pretty Woman
TTITLE7=Tore Down
TTITLE8=Trouble waiting
TTITLE9=You upset me
TTITLE10=The sky is crying
TTITLE11=War Lullaby
EXTD=
EXTT0=
EXTT1=
EXTT2=
EXTT3=
EXTT4=
EXTT5=
EXTT6=
EXTT7=
EXTT8=
EXTT9=
EXTT10=
EXTT11=
PLAYORDER=
